# Blender v2.92.0 OBJ File: 'board.blend'
# www.blender.org
mtllib board.mtl
o Cube
v 0.483969 3.242639 8.681995
v 0.483969 -0.210959 8.681995
v 0.483969 3.242639 9.754571
v 0.483969 -0.210959 9.754571
v -0.483969 3.242639 8.681995
v -0.483969 -0.210959 8.681995
v -0.483969 3.242639 9.754571
v -0.483969 -0.210959 9.754571
v 0.483969 3.242639 -8.681995
v 0.483969 -0.210959 -8.681995
v 0.483969 3.242639 -9.754571
v 0.483969 -0.210959 -9.754571
v -0.483969 3.242639 -8.681995
v -0.483969 -0.210959 -8.681995
v -0.483969 3.242639 -9.754571
v -0.483969 -0.210959 -9.754571
v 0.483969 14.287091 9.754571
v -0.483969 14.287091 9.754571
v 0.483969 14.287091 -9.754571
v -0.483969 14.287091 -9.754571
v 0.783516 3.909186 9.088023
v 0.783516 3.909186 -9.088023
v 0.783516 13.620543 9.088023
v 0.783516 13.620543 -9.088023
v 0.783516 3.242639 9.754571
v 0.783516 3.242639 -9.754571
v 0.783516 14.287091 9.754571
v 0.783516 14.287091 -9.754571
v 0.253281 3.909186 9.088023
v 0.253281 3.909186 -9.088023
v 0.253281 13.620543 9.088023
v 0.253281 13.620543 -9.088023
vt 0.687211 0.513510
vt 0.687211 0.611081
vt 0.659865 0.611081
vt 0.659865 0.513510
vt 0.030302 0.551173
vt 0.030302 0.648744
vt 0.000000 0.648744
vt 0.000000 0.551173
vt 0.175902 0.551172
vt 0.203248 0.551172
vt 0.203248 0.581474
vt 0.175902 0.581474
vt 0.090907 0.551172
vt 0.090907 0.648744
vt 0.060605 0.648744
vt 0.060605 0.551172
vt 0.175902 0.648744
vt 0.148556 0.648744
vt 0.148556 0.551172
vt 0.632519 0.513510
vt 0.659865 0.513510
vt 0.659865 0.611081
vt 0.632519 0.611081
vt 0.090907 0.551172
vt 0.121209 0.551172
vt 0.121209 0.648744
vt 0.090907 0.648744
vt 0.203248 0.581474
vt 0.203248 0.551172
vt 0.230595 0.551172
vt 0.230595 0.581474
vt 0.030302 0.551173
vt 0.060604 0.551173
vt 0.060604 0.648744
vt 0.030302 0.648744
vt 0.148556 0.551172
vt 0.148556 0.648744
vt 0.659865 0.923109
vt 0.632519 0.923109
vt 0.934230 0.551172
vt 0.906884 0.551172
vt 0.906884 0.000000
vt 0.934230 0.000000
vt 0.624056 0.923109
vt 0.624056 0.611081
vt 0.687211 0.923109
vt 0.659865 0.923109
vt 0.624056 0.000000
vt 0.624056 0.551172
vt 0.312028 0.551172
vt 0.312028 0.000000
vt 0.898421 0.551172
vt 0.898421 0.000000
vt 0.991537 0.551172
vt 0.991537 0.000000
vt 1.000000 0.000000
vt 1.000000 0.551172
vt 0.695674 0.611081
vt 0.695674 0.923109
vt 0.293197 0.532341
vt 0.293197 0.018831
vt 0.312028 0.000000
vt 0.312028 0.551172
vt 0.018831 0.018831
vt 0.018831 0.532341
vt 0.000000 0.551172
vt 0.000000 0.000000
vt 0.961577 0.513510
vt 0.961577 0.000000
vt 0.976557 0.000000
vt 0.976557 0.513510
vt 0.991537 0.000000
vt 0.991537 0.513510
vt 0.976557 0.513510
vt 0.976557 0.000000
vt 0.725635 0.513510
vt 0.725635 0.787875
vt 0.710654 0.787875
vt 0.710654 0.513510
vt 0.695674 0.787875
vt 0.695674 0.513510
vt 0.710654 0.513510
vt 0.710654 0.787875
vt 0.961577 0.490567
vt 0.934230 0.490567
vt 0.934230 0.000000
vt 0.961577 0.000000
vt 0.000000 -0.001522
vt 1.000000 -0.001522
vt 1.000000 1.001522
vt 0.000000 1.001522
vn 0.0000 0.0000 1.0000
vn -1.0000 0.0000 0.0000
vn 0.0000 -1.0000 0.0000
vn 1.0000 0.0000 0.0000
vn 0.0000 0.0000 -1.0000
vn 0.0000 1.0000 0.0000
usemtl Material
s off
f 4/1/1 3/2/1 7/3/1 8/4/1
f 8/5/2 7/6/2 5/7/2 6/8/2
f 6/9/3 2/10/3 4/11/3 8/12/3
f 2/13/4 1/14/4 3/15/4 4/16/4
f 6/9/5 5/17/5 1/18/5 2/19/5
f 12/20/5 16/21/5 15/22/5 11/23/5
f 16/24/2 14/25/2 13/26/2 15/27/2
f 14/28/3 16/29/3 12/30/3 10/31/3
f 10/32/4 12/33/4 11/34/4 9/35/4
f 14/25/1 10/36/1 9/37/1 13/26/1
f 11/23/5 15/22/5 20/38/5 19/39/5
f 18/40/6 17/41/6 19/42/6 20/43/6
f 11/23/5 19/39/5 28/44/5 26/45/5
f 7/3/1 3/2/1 17/46/1 18/47/1
f 15/48/2 7/49/2 18/50/2 20/51/2
f 19/42/6 17/41/6 27/52/6 28/53/6
f 3/54/3 11/55/3 26/56/3 25/57/3
f 17/46/1 3/2/1 25/58/1 27/59/1
f 22/60/4 21/61/4 25/62/4 26/63/4
f 23/64/4 24/65/4 28/66/4 27/67/4
f 24/65/4 22/60/4 26/63/4 28/66/4
f 21/61/4 23/64/4 27/67/4 25/62/4
f 21/68/6 22/69/6 30/70/6 29/71/6
f 24/72/3 23/73/3 31/74/3 32/75/3
f 22/76/1 24/77/1 32/78/1 30/79/1
f 23/80/5 21/81/5 29/82/5 31/83/5
f 1/84/3 5/85/3 13/86/3 9/87/3
usemtl Material.001
f 29/88/4 30/89/4 32/90/4 31/91/4
