# Blender v2.92.0 OBJ File: 'lever.blend'
# www.blender.org
mtllib lever.mtl
o Cube_Cube.001
v -0.048994 -2.230960 0.612984
v -0.048994 2.230960 0.612984
v -0.048994 -2.230960 -0.612984
v -0.048994 2.230960 -0.612984
v 0.539145 -3.594301 1.437721
v 0.539145 3.594301 1.437721
v 0.539145 -3.594301 -1.437721
v 0.539145 3.594301 -1.437721
v -0.539145 -3.594301 -1.437721
v -0.539145 -3.594301 1.437721
v -0.539145 3.594301 1.437721
v -0.539145 3.594301 -1.437721
v -0.539145 -3.348890 -1.192309
v -0.539145 -3.348890 1.192309
v -0.539145 3.348890 1.192309
v -0.539145 3.348890 -1.192309
v -0.178304 -3.348890 -1.192309
v -0.178304 -3.348890 1.192309
v -0.178304 3.348890 1.192309
v -0.178304 3.348890 -1.192309
v -0.178304 -2.230960 -0.612984
v -0.178304 -2.230960 0.612984
v -0.178304 2.230960 0.612984
v -0.178304 2.230960 -0.612984
vt 0.922255 0.000000
vt 0.922255 0.644157
vt 0.825631 0.644157
vt 0.825631 0.000000
vt 0.257663 0.000000
vt 0.257663 0.644157
vt 0.000000 0.644157
vt 0.000000 0.000000
vt 0.825631 0.000000
vt 0.825631 0.644157
vt 0.729007 0.644157
vt 0.729007 0.000000
vt 0.000000 0.644157
vt 0.096624 0.644157
vt 0.096624 0.901820
vt 0.000000 0.901820
vt 0.625183 0.600176
vt 0.721806 0.600176
vt 0.721806 0.857839
vt 0.625183 0.857839
vt 0.493335 0.021991
vt 0.279654 0.021991
vt 0.257663 0.000000
vt 0.515326 0.000000
vt 0.493335 0.622167
vt 0.515326 0.644157
vt 0.279654 0.622167
vt 0.257663 0.644157
vt 0.096624 0.857839
vt 0.096624 0.644157
vt 0.128958 0.644157
vt 0.128958 0.857839
vt 0.922255 0.600176
vt 0.922255 0.000000
vt 0.954589 0.000000
vt 0.954589 0.600176
vt 0.161292 0.644158
vt 0.161292 0.857839
vt 0.128958 0.857839
vt 0.128958 0.644158
vt 0.986924 0.000000
vt 0.986924 0.600176
vt 0.954589 0.600176
vt 0.954589 0.000000
vt 0.677095 0.100176
vt 0.567238 0.100176
vt 0.515326 0.000000
vt 0.729007 0.000000
vt 0.677095 0.500000
vt 0.729007 0.600176
vt 0.567238 0.500000
vt 0.515326 0.600176
vt 0.172880 0.754014
vt 0.172880 0.644157
vt 0.184467 0.644157
vt 0.184467 0.754014
vt 0.986924 0.399824
vt 0.986924 0.000000
vt 0.998511 0.000000
vt 0.998511 0.399824
vt 0.172880 0.644157
vt 0.172880 0.754014
vt 0.161292 0.754014
vt 0.161292 0.644157
vt 0.998511 0.399824
vt 0.998511 0.799649
vt 0.986923 0.799649
vt 0.986924 0.399824
vt 1.001880 0.003350
vt 0.999222 1.000000
vt 0.000661 1.000000
vt -0.002464 0.000250
vn 0.0000 0.0000 -1.0000
vn 1.0000 0.0000 0.0000
vn 0.0000 0.0000 1.0000
vn 0.0000 -1.0000 0.0000
vn 0.0000 1.0000 0.0000
vn -1.0000 0.0000 0.0000
usemtl Material.001
s off
f 9/1/1 12/2/1 8/3/1 7/4/1
f 7/5/2 8/6/2 6/7/2 5/8/2
f 5/9/3 6/10/3 11/11/3 10/12/3
f 9/13/4 7/14/4 5/15/4 10/16/4
f 8/17/5 12/18/5 11/19/5 6/20/5
f 14/21/6 13/22/6 9/23/6 10/24/6
f 15/25/6 14/21/6 10/24/6 11/26/6
f 16/27/6 15/25/6 11/26/6 12/28/6
f 13/22/6 16/27/6 12/28/6 9/23/6
f 18/29/5 17/30/5 13/31/5 14/32/5
f 19/33/1 18/34/1 14/35/1 15/36/1
f 20/37/4 19/38/4 15/39/4 16/40/4
f 17/41/3 20/42/3 16/43/3 13/44/3
usemtl Material.002
f 22/45/6 21/46/6 17/47/6 18/48/6
f 23/49/6 22/45/6 18/48/6 19/50/6
f 24/51/6 23/49/6 19/50/6 20/52/6
f 21/46/6 24/51/6 20/52/6 17/47/6
f 1/53/5 3/54/5 21/55/5 22/56/5
f 2/57/1 1/58/1 22/59/1 23/60/1
f 4/61/4 2/62/4 23/63/4 24/64/4
f 3/65/3 4/66/3 24/67/3 21/68/3
usemtl Material.005
f 1/69/6 2/70/6 4/71/6 3/72/6
o Cube.001_Cube.002
v -3.309883 -0.475823 0.475823
v -3.309883 0.475823 0.475823
v -3.309883 -0.475823 -0.475823
v -3.309883 0.475823 -0.475823
v 0.251346 -0.475823 0.475823
v 0.251346 0.475823 0.475823
v 0.251346 -0.475823 -0.475823
v 0.251346 0.475823 -0.475823
v -3.309883 -0.657419 -0.657419
v -3.309883 -0.657419 0.657419
v -3.309883 0.657419 0.657419
v -3.309883 0.657419 -0.657419
v -3.575104 -0.657419 -0.657419
v -3.575104 -0.657419 0.657419
v -3.575104 0.657419 0.657419
v -3.575104 0.657419 -0.657419
v -4.083541 -0.427110 -0.427110
v -4.083541 -0.427110 0.427110
v -4.083541 0.427110 0.427110
v -4.083541 0.427110 -0.427110
vt 0.625000 0.250000
vt 0.375000 0.250000
vt 0.375000 0.250000
vt 0.625000 0.250000
vt 0.625000 0.500000
vt 0.375000 0.500000
vt 0.375000 0.750000
vt 0.625000 0.750000
vt 0.625000 1.000000
vt 0.375000 1.000000
vt 0.125000 0.500000
vt 0.125000 0.750000
vt 0.875000 0.500000
vt 0.875000 0.750000
vt 0.625000 1.000000
vt 0.375000 1.000000
vt 0.875000 0.500000
vt 0.875000 0.750000
vt 0.125000 0.750000
vt 0.125000 0.500000
vt 0.875000 0.500000
vt 0.875000 0.750000
vt 0.625000 0.250000
vt 0.375000 0.250000
vt 0.375000 0.250000
vt 0.625000 0.250000
vt 0.125000 0.750000
vt 0.125000 0.500000
vt 0.625000 1.000000
vt 0.375000 1.000000
vt 0.375000 0.000000
vt 0.625000 0.000000
vt 0.625000 1.000000
vt 0.375000 1.000000
vt 0.875000 0.500000
vt 0.875000 0.750000
vt 0.125000 0.750000
vt 0.125000 0.500000
vn 1.0000 0.0000 0.0000
vn 0.0000 0.0000 -1.0000
vn 0.0000 0.0000 1.0000
vn 0.0000 -1.0000 0.0000
vn 0.0000 1.0000 0.0000
vn -0.4126 0.0000 -0.9109
vn -1.0000 0.0000 0.0000
vn -0.4126 0.0000 0.9109
vn -0.4126 0.9109 0.0000
vn -0.4126 -0.9109 0.0000
usemtl Material.003
s off
f 28/73/7 27/74/7 33/75/7 36/76/7
f 27/74/8 28/73/8 32/77/8 31/78/8
f 29/79/9 30/80/9 26/81/9 25/82/9
f 27/83/10 31/78/10 29/79/10 25/84/10
f 32/77/11 28/85/11 26/86/11 30/80/11
f 25/82/7 26/81/7 35/87/7 34/88/7
f 26/86/7 28/85/7 36/89/7 35/90/7
f 27/83/7 25/84/7 34/91/7 33/92/7
usemtl Material.004
f 35/90/11 36/89/11 40/93/11 39/94/11
f 40/95/12 37/96/12 41/97/12 44/98/12
f 33/92/10 34/91/10 38/99/10 37/100/10
f 36/76/8 33/75/8 37/96/8 40/95/8
f 34/88/9 35/87/9 39/101/9 38/102/9
f 42/103/13 43/104/13 44/98/13 41/97/13
f 38/102/14 39/101/14 43/105/14 42/106/14
f 39/94/15 40/93/15 44/107/15 43/108/15
f 37/100/16 38/99/16 42/109/16 41/110/16
