# Blender v2.92.0 OBJ File: 'laiva.blend'
# www.blender.org
mtllib ship.mtl
o Cube
v 9.730454 -1.176854 -2.478008
v 9.045631 -1.176854 2.478008
v 7.731164 -2.645437 0.000000
v -9.782951 -1.176854 -2.478008
v -7.731164 -2.645437 0.000000
v -9.049130 -1.176854 2.478008
v 10.895179 0.982653 3.245324
v -11.537963 0.982653 3.245324
v 10.895179 0.982653 -3.245324
v -11.537963 0.982653 -3.245324
v 10.583576 -1.176854 0.000000
v -10.914538 -1.176854 0.000000
v 12.204830 0.982653 0.000000
v -14.933822 0.982653 0.000000
v 12.110862 2.962632 3.676042
v -13.531267 2.962632 3.676042
v 13.310022 2.962632 0.000000
v -18.808149 2.962632 0.000000
v -13.531267 2.962632 -3.676042
v 12.110862 2.962632 -3.676042
v 11.558930 3.696944 2.954553
v -13.388388 3.696944 2.954553
v 12.459750 3.696944 0.000000
v -17.885056 3.696944 0.000000
v -13.388388 3.696944 -2.954553
v 11.558930 3.696944 -2.954553
v 12.084144 3.696944 3.676042
v -13.559215 3.696944 3.676042
v 13.259677 3.696944 0.000000
v -19.043274 3.696944 0.000000
v -13.559215 3.696944 -3.676042
v 12.084144 3.696944 -3.676042
v 11.586725 2.973221 2.954553
v -13.346180 2.973221 2.954553
v 12.505669 2.973221 0.000000
v -17.709743 2.973221 0.000000
v -13.346180 2.973221 -2.954553
v 11.586725 2.973221 -2.954553
vt 0.674747 0.000000
vt 0.757587 0.122347
vt 0.757587 0.821421
vt 0.674747 0.847185
vt 0.591907 0.821421
vt 0.591907 0.122347
vt 0.757587 0.806763
vt 0.757587 0.259644
vt 0.820530 0.210436
vt 0.820530 0.839420
vt 0.206139 0.122799
vt 0.256530 0.085943
vt 0.256530 0.593288
vt 0.206139 0.556334
vt 0.538239 0.279480
vt 0.466121 0.347282
vt 0.468663 0.249046
vt 0.407329 0.295940
vt 0.591906 0.782938
vt 0.508646 0.746220
vt 0.456523 0.977063
vt 0.454599 0.901720
vt 0.508414 0.912113
vt 0.510175 0.999899
vt 0.396515 0.886811
vt 0.397768 0.813354
vt 0.456523 0.803864
vt 0.396515 0.207664
vt 0.474221 0.121670
vt 0.319472 0.034085
vt 0.319472 0.663071
vt 0.570605 0.210905
vt 0.398775 0.939716
vt 0.877182 0.154547
vt 0.877182 0.873507
vt 0.510175 0.803712
vt 0.478796 0.000000
vt 0.591906 0.137981
vt 0.306887 0.758285
vt 0.376124 0.718959
vt 0.361868 0.866914
vt 0.376124 0.000000
vt 0.457094 0.762796
vt 0.527788 0.803713
vt 0.552391 0.803712
vt 0.551106 0.875477
vt 0.530775 0.875402
vt 0.532085 0.803787
vt 0.396515 0.000750
vt 0.396515 0.719743
vt 0.862925 0.006592
vt 0.883316 0.000000
vt 0.897572 0.153763
vt 0.382259 0.873506
vt 0.897572 0.872757
vt 0.529048 0.912011
vt 0.530775 1.000000
vt 0.530775 0.803814
vt 0.185910 0.858030
vt 0.185910 0.158552
vt 0.206139 0.153763
vt 0.206139 0.872757
vt 0.103070 0.883287
vt 0.103070 0.905716
vt 0.103070 0.032475
vt 0.020229 0.158552
vt 0.000000 0.153763
vt 0.103070 0.000000
vt 0.020229 0.858030
vt 0.000000 0.872757
vt 0.552391 0.962072
vt 0.532085 0.962147
vt 0.917651 0.700469
vt 0.927358 0.826694
vt 0.907331 0.821500
vt 0.897572 0.699006
vt 0.947437 0.126225
vt 0.957144 0.825636
vt 0.937060 0.826694
vt 0.927358 0.127687
vt 0.957144 0.000000
vt 0.937117 0.005194
vt 0.927358 0.001059
vt 0.907274 0.000000
vn 0.0000 1.0000 0.0000
vn 0.3672 -0.6887 -0.6252
vn -0.2427 -0.7184 -0.6519
vn -0.2565 -0.5347 -0.8051
vn 0.4569 -0.4607 -0.7609
vn 0.1508 -0.9885 0.0086
vn 0.2876 -0.6850 0.6694
vn -0.1976 -0.6995 0.6867
vn -0.1369 -0.9905 0.0083
vn -0.4945 -0.8685 0.0339
vn 0.4516 -0.4823 0.7505
vn 0.8206 -0.5713 0.0123
vn 0.9713 -0.2378 0.0000
vn 0.6085 -0.2045 0.7667
vn 0.6651 -0.7456 0.0418
vn -0.2524 -0.5501 0.7960
vn -0.5292 -0.8485 0.0035
vn -0.3279 -0.3324 -0.8843
vn 0.6085 -0.2045 -0.7667
vn -0.8836 -0.4682 0.0000
vn -0.3279 -0.3324 0.8843
vn -0.9546 -0.0486 -0.2940
vn 0.0000 0.0000 1.0000
vn -0.5613 -0.1005 -0.8215
vn -0.5613 -0.1005 0.8215
vn 0.0000 0.0000 -1.0000
vn 0.9504 0.0499 0.3070
vn 0.9504 0.0499 -0.3070
vn -0.9546 -0.0486 0.2940
vn 0.5529 0.0831 0.8291
vn 0.5529 0.0831 -0.8291
usemtl Material
s off
f 36/1/1 34/2/1 33/3/1 35/4/1 38/5/1 37/6/1
s 1
f 1/7/2 4/8/3 10/9/4 9/10/5
f 3/11/6 2/12/7 6/13/8 5/14/9
f 4/15/3 5/16/9 12/17/10
f 6/18/8 12/17/10 5/16/9
f 5/16/9 4/15/3 1/19/2 3/20/6
f 7/21/11 13/22/12 17/23/13 15/24/14
f 11/25/15 1/26/2 9/27/5 13/22/12
f 12/17/10 6/18/8 8/28/16 14/29/17
f 6/13/8 2/12/7 7/30/11 8/31/16
f 4/15/3 12/17/10 14/29/17 10/32/4
f 2/33/7 11/25/15 13/22/12 7/21/11
f 9/10/5 10/9/4 19/34/18 20/35/19
f 13/22/12 9/27/5 20/36/19 17/23/13
f 10/32/4 14/29/17 18/37/20 19/38/18
f 14/39/17 8/31/16 16/40/21 18/41/20
f 8/31/16 7/30/11 15/42/14 16/40/21
f 2/43/7 3/20/6 11/44/15
f 3/20/6 1/19/2 11/44/15
usemtl Material.001
s off
f 21/45/22 23/46/22 35/47/22 33/48/22
f 16/40/23 15/42/23 27/49/23 28/50/23
f 19/34/24 18/51/24 30/52/24 31/53/24
f 18/41/25 16/40/25 28/50/25 30/54/25
f 20/35/26 19/34/26 31/53/26 32/55/26
f 15/24/27 17/23/27 29/56/27 27/57/27
f 17/23/28 20/36/28 32/58/28 29/56/28
f 21/59/1 22/60/1 28/61/1 27/62/1
f 23/63/1 21/59/1 27/62/1 29/64/1
f 24/65/1 25/66/1 31/67/1 30/68/1
f 25/66/1 26/69/1 32/70/1 31/67/1
f 26/69/1 23/63/1 29/64/1 32/70/1
f 22/60/1 24/65/1 30/68/1 28/61/1
f 23/46/29 26/71/29 38/72/29 35/47/29
f 25/73/30 24/74/30 36/75/30 37/76/30
f 22/77/26 21/78/26 33/79/26 34/80/26
f 24/81/31 22/77/31 34/80/31 36/82/31
f 26/83/23 25/73/23 37/76/23 38/84/23
o Cylinder
v 2.691932 2.759218 -0.317968
v 2.691932 16.805796 -0.317968
v 2.753964 2.759218 -0.311858
v 2.753964 16.805796 -0.311858
v 2.813613 2.759218 -0.293764
v 2.813613 16.805796 -0.293764
v 2.868585 2.759218 -0.264380
v 2.868585 16.805796 -0.264380
v 2.916769 2.759218 -0.224837
v 2.916769 16.805796 -0.224837
v 2.956312 2.759218 -0.176653
v 2.956312 16.805796 -0.176653
v 2.985696 2.759218 -0.121681
v 2.985696 16.805796 -0.121681
v 3.003790 2.759218 -0.062032
v 3.003790 16.805796 -0.062032
v 3.009899 2.759218 -0.000000
v 3.009899 16.805796 -0.000000
v 3.003790 2.759218 0.062032
v 3.003790 16.805796 0.062032
v 2.985696 2.759218 0.121681
v 2.985696 16.805796 0.121681
v 2.956312 2.759218 0.176653
v 2.956312 16.805796 0.176653
v 2.916769 2.759218 0.224837
v 2.916769 16.805796 0.224837
v 2.868585 2.759218 0.264380
v 2.868585 16.805796 0.264380
v 2.813613 2.759218 0.293764
v 2.813613 16.805796 0.293764
v 2.753964 2.759218 0.311858
v 2.753964 16.805796 0.311858
v 2.691932 2.759218 0.317967
v 2.691932 16.805796 0.317967
v 2.629900 2.759218 0.311858
v 2.629900 16.805796 0.311858
v 2.570251 2.759218 0.293763
v 2.570251 16.805796 0.293763
v 2.515279 2.759218 0.264380
v 2.515279 16.805796 0.264380
v 2.467095 2.759218 0.224837
v 2.467095 16.805796 0.224837
v 2.427552 2.759218 0.176653
v 2.427552 16.805796 0.176653
v 2.398168 2.759218 0.121681
v 2.398168 16.805796 0.121681
v 2.380074 2.759218 0.062032
v 2.380074 16.805796 0.062032
v 2.373965 2.759218 -0.000000
v 2.373965 16.805796 -0.000000
v 2.380074 2.759218 -0.062033
v 2.380074 16.805796 -0.062033
v 2.398169 2.759218 -0.121681
v 2.398169 16.805796 -0.121681
v 2.427552 2.759218 -0.176654
v 2.427552 16.805796 -0.176654
v 2.467095 2.759218 -0.224837
v 2.467095 16.805796 -0.224837
v 2.515279 2.759218 -0.264381
v 2.515279 16.805796 -0.264381
v 2.570252 2.759218 -0.293764
v 2.570252 16.805796 -0.293764
v 2.629900 2.759218 -0.311858
v 2.629900 16.805796 -0.311858
vt 1.000000 0.500000
vt 1.000000 1.000000
vt 0.968750 1.000000
vt 0.968750 0.500000
vt 0.937500 1.000000
vt 0.937500 0.500000
vt 0.906250 1.000000
vt 0.906250 0.500000
vt 0.875000 1.000000
vt 0.875000 0.500000
vt 0.843750 1.000000
vt 0.843750 0.500000
vt 0.812500 1.000000
vt 0.812500 0.500000
vt 0.781250 1.000000
vt 0.781250 0.500000
vt 0.750000 1.000000
vt 0.750000 0.500000
vt 0.718750 1.000000
vt 0.718750 0.500000
vt 0.687500 1.000000
vt 0.687500 0.500000
vt 0.656250 1.000000
vt 0.656250 0.500000
vt 0.625000 1.000000
vt 0.625000 0.500000
vt 0.593750 1.000000
vt 0.593750 0.500000
vt 0.562500 1.000000
vt 0.562500 0.500000
vt 0.531250 1.000000
vt 0.531250 0.500000
vt 0.500000 1.000000
vt 0.500000 0.500000
vt 0.468750 1.000000
vt 0.468750 0.500000
vt 0.437500 1.000000
vt 0.437500 0.500000
vt 0.406250 1.000000
vt 0.406250 0.500000
vt 0.375000 1.000000
vt 0.375000 0.500000
vt 0.343750 1.000000
vt 0.343750 0.500000
vt 0.312500 1.000000
vt 0.312500 0.500000
vt 0.281250 1.000000
vt 0.281250 0.500000
vt 0.250000 1.000000
vt 0.250000 0.500000
vt 0.218750 1.000000
vt 0.218750 0.500000
vt 0.187500 1.000000
vt 0.187500 0.500000
vt 0.156250 1.000000
vt 0.156250 0.500000
vt 0.125000 1.000000
vt 0.125000 0.500000
vt 0.093750 1.000000
vt 0.093750 0.500000
vt 0.062500 1.000000
vt 0.062500 0.500000
vt 0.296822 0.485388
vt 0.250000 0.490000
vt 0.203179 0.485389
vt 0.158156 0.471731
vt 0.116663 0.449553
vt 0.080295 0.419706
vt 0.050447 0.383337
vt 0.028269 0.341844
vt 0.014612 0.296822
vt 0.010000 0.250000
vt 0.014611 0.203179
vt 0.028269 0.158156
vt 0.050447 0.116663
vt 0.080294 0.080294
vt 0.116663 0.050447
vt 0.158156 0.028269
vt 0.203178 0.014612
vt 0.250000 0.010000
vt 0.296822 0.014612
vt 0.341844 0.028269
vt 0.383337 0.050447
vt 0.419706 0.080294
vt 0.449553 0.116663
vt 0.471731 0.158156
vt 0.485388 0.203178
vt 0.490000 0.250000
vt 0.485388 0.296822
vt 0.471731 0.341844
vt 0.449553 0.383337
vt 0.419706 0.419706
vt 0.383337 0.449553
vt 0.341844 0.471731
vt 0.031250 1.000000
vt 0.031250 0.500000
vt 0.000000 1.000000
vt 0.000000 0.500000
vt 0.750000 0.490000
vt 0.796822 0.485388
vt 0.841844 0.471731
vt 0.883337 0.449553
vt 0.919706 0.419706
vt 0.949553 0.383337
vt 0.971731 0.341844
vt 0.985388 0.296822
vt 0.990000 0.250000
vt 0.985388 0.203178
vt 0.971731 0.158156
vt 0.949553 0.116663
vt 0.919706 0.080294
vt 0.883337 0.050447
vt 0.841844 0.028269
vt 0.796822 0.014612
vt 0.750000 0.010000
vt 0.703178 0.014612
vt 0.658156 0.028269
vt 0.616663 0.050447
vt 0.580294 0.080294
vt 0.550447 0.116663
vt 0.528269 0.158156
vt 0.514611 0.203179
vt 0.510000 0.250000
vt 0.514612 0.296822
vt 0.528269 0.341844
vt 0.550447 0.383337
vt 0.580295 0.419706
vt 0.616663 0.449553
vt 0.658156 0.471731
vt 0.703179 0.485389
vn 0.0000 -0.6857 -0.7279
vn 0.0000 0.6857 -0.7279
vn 0.1420 0.6857 -0.7139
vn 0.1420 -0.6857 -0.7139
vn 0.2785 0.6857 -0.6725
vn 0.2785 -0.6857 -0.6725
vn 0.4044 0.6857 -0.6052
vn 0.4044 -0.6857 -0.6052
vn 0.5147 0.6857 -0.5147
vn 0.5147 -0.6857 -0.5147
vn 0.6052 0.6857 -0.4044
vn 0.6052 -0.6857 -0.4044
vn 0.6725 0.6857 -0.2785
vn 0.6725 -0.6857 -0.2785
vn 0.7139 0.6857 -0.1420
vn 0.7139 -0.6857 -0.1420
vn 0.7279 0.6857 0.0000
vn 0.7279 -0.6857 0.0000
vn 0.7139 0.6857 0.1420
vn 0.7139 -0.6857 0.1420
vn 0.6725 0.6857 0.2785
vn 0.6725 -0.6857 0.2785
vn 0.6052 0.6857 0.4044
vn 0.6052 -0.6857 0.4044
vn 0.5147 0.6857 0.5147
vn 0.5147 -0.6857 0.5147
vn 0.4044 0.6857 0.6052
vn 0.4044 -0.6857 0.6052
vn 0.2785 0.6857 0.6725
vn 0.2785 -0.6857 0.6725
vn 0.1420 0.6857 0.7139
vn 0.1420 -0.6857 0.7139
vn 0.0000 0.6857 0.7279
vn 0.0000 -0.6857 0.7279
vn -0.1420 0.6857 0.7139
vn -0.1420 -0.6857 0.7139
vn -0.2785 0.6857 0.6725
vn -0.2785 -0.6857 0.6725
vn -0.4044 0.6857 0.6052
vn -0.4044 -0.6857 0.6052
vn -0.5147 0.6857 0.5147
vn -0.5147 -0.6857 0.5147
vn -0.6052 0.6857 0.4044
vn -0.6052 -0.6857 0.4044
vn -0.6725 0.6857 0.2785
vn -0.6725 -0.6857 0.2785
vn -0.7139 0.6857 0.1420
vn -0.7139 -0.6857 0.1420
vn -0.7279 0.6857 0.0000
vn -0.7279 -0.6857 0.0000
vn -0.7139 0.6857 -0.1420
vn -0.7139 -0.6857 -0.1420
vn -0.6725 0.6857 -0.2785
vn -0.6725 -0.6857 -0.2785
vn -0.6052 0.6857 -0.4044
vn -0.6052 -0.6857 -0.4044
vn -0.5147 0.6857 -0.5147
vn -0.5147 -0.6857 -0.5147
vn -0.4044 0.6857 -0.6052
vn -0.4044 -0.6857 -0.6052
vn -0.2785 0.6857 -0.6725
vn -0.2785 -0.6857 -0.6725
vn -0.1420 0.6857 -0.7139
vn -0.1420 -0.6857 -0.7139
usemtl Material.003
s 1
f 39/85/32 40/86/33 42/87/34 41/88/35
f 41/88/35 42/87/34 44/89/36 43/90/37
f 43/90/37 44/89/36 46/91/38 45/92/39
f 45/92/39 46/91/38 48/93/40 47/94/41
f 47/94/41 48/93/40 50/95/42 49/96/43
f 49/96/43 50/95/42 52/97/44 51/98/45
f 51/98/45 52/97/44 54/99/46 53/100/47
f 53/100/47 54/99/46 56/101/48 55/102/49
f 55/102/49 56/101/48 58/103/50 57/104/51
f 57/104/51 58/103/50 60/105/52 59/106/53
f 59/106/53 60/105/52 62/107/54 61/108/55
f 61/108/55 62/107/54 64/109/56 63/110/57
f 63/110/57 64/109/56 66/111/58 65/112/59
f 65/112/59 66/111/58 68/113/60 67/114/61
f 67/114/61 68/113/60 70/115/62 69/116/63
f 69/116/63 70/115/62 72/117/64 71/118/65
f 71/118/65 72/117/64 74/119/66 73/120/67
f 73/120/67 74/119/66 76/121/68 75/122/69
f 75/122/69 76/121/68 78/123/70 77/124/71
f 77/124/71 78/123/70 80/125/72 79/126/73
f 79/126/73 80/125/72 82/127/74 81/128/75
f 81/128/75 82/127/74 84/129/76 83/130/77
f 83/130/77 84/129/76 86/131/78 85/132/79
f 85/132/79 86/131/78 88/133/80 87/134/81
f 87/134/81 88/133/80 90/135/82 89/136/83
f 89/136/83 90/135/82 92/137/84 91/138/85
f 91/138/85 92/137/84 94/139/86 93/140/87
f 93/140/87 94/139/86 96/141/88 95/142/89
f 95/142/89 96/141/88 98/143/90 97/144/91
f 97/144/91 98/143/90 100/145/92 99/146/93
f 42/147/34 40/148/33 102/149/94 100/150/92 98/151/90 96/152/88 94/153/86 92/154/84 90/155/82 88/156/80 86/157/78 84/158/76 82/159/74 80/160/72 78/161/70 76/162/68 74/163/66 72/164/64 70/165/62 68/166/60 66/167/58 64/168/56 62/169/54 60/170/52 58/171/50 56/172/48 54/173/46 52/174/44 50/175/42 48/176/40 46/177/38 44/178/36
f 99/146/93 100/145/92 102/179/94 101/180/95
f 101/180/95 102/179/94 40/181/33 39/182/32
f 39/183/32 41/184/35 43/185/37 45/186/39 47/187/41 49/188/43 51/189/45 53/190/47 55/191/49 57/192/51 59/193/53 61/194/55 63/195/57 65/196/59 67/197/61 69/198/63 71/199/65 73/200/67 75/201/69 77/202/71 79/203/73 81/204/75 83/205/77 85/206/79 87/207/81 89/208/83 91/209/85 93/210/87 95/211/89 97/212/91 99/213/93 101/214/95
o Plane
v 0.116745 6.496865 3.741902
v 0.116746 15.343937 3.741902
v 4.366814 6.496865 -4.017454
v 4.366814 15.343937 -4.017454
v -0.092082 7.971377 3.627520
v -0.266670 9.445889 3.531892
v -0.339803 10.920401 3.491834
v -0.266670 12.394913 3.531892
v -0.092082 13.869425 3.627520
v 4.157987 13.869425 -4.131835
v 3.983399 12.394913 -4.227463
v 3.910266 10.920401 -4.267521
v 3.983399 9.445889 -4.227463
v 4.157987 7.971376 -4.131835
vt 0.833333 0.000000
vt 1.000000 0.000000
vt 1.000000 1.000000
vt 0.833333 1.000000
vt 0.000000 0.000000
vt 0.166667 0.000000
vt 0.166667 1.000000
vt 0.000000 1.000000
vt 0.333333 0.000000
vt 0.333333 1.000000
vt 0.500000 0.000000
vt 0.500000 1.000000
vt 0.666667 0.000000
vt 0.666667 1.000000
vn -0.8675 0.1466 -0.4752
vn -0.8658 0.1594 -0.4742
vn -0.8658 -0.1594 -0.4742
vn -0.8675 -0.1466 -0.4752
vn -0.8730 -0.0952 -0.4782
vn -0.8770 0.0000 -0.4804
vn -0.8730 0.0952 -0.4782
usemtl Material.002
s 1
f 111/215/96 104/216/97 106/217/97 112/218/96
f 103/219/98 107/220/99 116/221/99 105/222/98
f 107/220/99 108/223/100 115/224/100 116/221/99
f 108/223/100 109/225/101 114/226/101 115/224/100
f 109/225/101 110/227/102 113/228/102 114/226/101
f 110/227/102 111/215/96 112/218/96 113/228/102
