# Blender v2.92.0 OBJ File: 'miekka.blend'
# www.blender.org
mtllib sword.mtl
o Cube
v 0.108464 2.495115 -0.079079
v 0.213210 1.977121 -0.258997
v 0.108464 2.495115 0.079079
v 0.213210 1.977121 0.258997
v -0.108464 2.495115 -0.079079
v -0.213210 1.977121 -0.258997
v -0.108464 2.495115 0.079079
v -0.213210 1.977121 0.258997
v 0.213210 1.977121 -1.011662
v -0.213210 1.977121 -1.011662
v 0.027116 2.495115 -0.415945
v -0.213210 1.977121 1.011662
v -0.027116 2.495115 0.415945
v 0.027116 2.495115 0.415945
v 0.213210 1.977121 1.011662
v -0.027116 2.495115 -0.415945
v 0.213210 2.495115 -0.168610
v 0.213210 2.495115 0.168610
v -0.213210 2.495115 0.168610
v -0.213210 2.495115 -0.168610
v 0.213210 2.495115 1.011662
v -0.213210 2.495115 1.011662
v -0.213210 2.495115 -1.011662
v 0.213210 2.495115 -1.011662
v 0.103157 7.670695 0.061913
v -0.103157 7.670695 0.061913
v -0.103157 7.670695 -0.061913
v 0.103157 7.670695 -0.061913
v 0.025789 7.670695 0.325654
v -0.025789 7.670695 0.325654
v -0.025789 7.670695 -0.325654
v 0.025789 7.670695 -0.325654
v 0.000000 9.219231 0.000000
v 0.247076 1.935982 -1.122700
v -0.247076 1.935982 -1.122700
v 0.247076 2.536254 -1.122700
v -0.247076 1.935982 1.122700
v -0.247076 2.536254 1.122700
v 0.247076 2.536254 1.122700
v 0.247076 1.935982 1.122700
v -0.247076 2.536254 -1.122700
v 0.191002 1.848391 -0.191002
v 0.191002 1.848391 0.191002
v -0.191002 1.848391 -0.191002
v -0.191002 1.848391 0.191002
v 0.191002 0.635281 -0.191002
v 0.191002 0.635281 0.191002
v -0.191002 0.635281 -0.191002
v -0.191002 0.635281 0.191002
v 0.267294 0.635281 -0.267294
v 0.267294 0.635281 0.267294
v -0.267294 0.635281 -0.267294
v -0.267294 0.635281 0.267294
v -0.267294 0.427284 -0.267294
v -0.267294 0.427284 0.267294
v 0.267294 0.427284 -0.267294
v 0.267294 0.427284 0.267294
v -0.267649 1.977121 -0.258997
v -0.267649 1.977121 0.258997
v 0.237111 2.495115 -0.168610
v 0.267649 1.977121 -0.258997
v -0.237111 2.495115 0.168610
v 0.237111 2.495115 0.168610
v 0.267649 1.977121 0.258997
v -0.237111 2.495115 -0.168610
vt 0.466082 0.554119
vt 0.402711 0.554119
vt 0.402711 0.442263
vt 0.466082 0.442263
vt 0.486801 0.425761
vt 0.409319 0.415634
vt 0.404533 0.303880
vt 0.481441 0.300587
vt 0.539519 0.554119
vt 0.476148 0.554119
vt 0.476148 0.442263
vt 0.539519 0.442263
vt 0.409319 0.152047
vt 0.486801 0.141920
vt 0.481441 0.267094
vt 0.404533 0.263801
vt 0.397678 0.540683
vt 0.320195 0.530556
vt 0.315409 0.418803
vt 0.392317 0.415509
vt 0.409319 0.010127
vt 0.486801 0.000000
vt 0.481441 0.125174
vt 0.404533 0.121880
vt 0.267859 0.155096
vt 0.267859 0.178600
vt 0.252292 0.191906
vt 0.252292 0.141790
vt 0.279948 0.105033
vt 0.252292 0.016502
vt 0.288008 0.105033
vt 0.315664 0.016502
vt 0.300097 0.155096
vt 0.315664 0.141790
vt 0.300097 0.178600
vt 0.315664 0.191906
vt 0.288008 0.228663
vt 0.315664 0.317194
vt 0.279948 0.228663
vt 0.252292 0.317194
vt 0.050063 0.999392
vt 0.000000 0.999292
vt 0.013418 0.230157
vt 0.052614 0.230251
vt 0.123630 0.999292
vt 0.073567 0.999392
vt 0.071016 0.230251
vt 0.110211 0.230157
vt 0.061815 0.000000
vt 0.566095 0.230732
vt 0.558430 0.230732
vt 0.562262 0.000000
vt 0.176243 0.230251
vt 0.137048 0.230157
vt 0.185445 0.000000
vt 0.558232 1.000000
vt 0.550173 1.000000
vt 0.550370 0.230732
vt 0.558035 0.230732
vt 0.197197 0.999392
vt 0.173692 0.999392
vt 0.194646 0.230251
vt 0.247259 0.999292
vt 0.233841 0.230157
vt 0.123630 0.999292
vt 0.566292 1.000000
vt 0.558232 1.000000
vt 0.554203 0.000000
vt 0.302441 0.333696
vt 0.302441 0.410842
vt 0.298889 0.410842
vt 0.294350 0.333696
vt 0.286260 0.410842
vt 0.286260 0.333696
vt 0.294350 0.333696
vt 0.289812 0.410842
vt 0.397678 0.425761
vt 0.471115 0.425761
vt 0.397678 0.287657
vt 0.486801 0.283841
vt 0.639729 0.000000
vt 0.639729 0.089201
vt 0.566292 0.089201
vt 0.566292 0.000000
vt 0.381991 0.540683
vt 0.381991 0.629884
vt 0.308554 0.629884
vt 0.308554 0.540683
vt 0.247259 0.000000
vt 0.320697 0.000000
vt 0.320697 0.333696
vt 0.247259 0.333696
vt 0.486801 0.283841
vt 0.397678 0.280024
vt 0.308554 0.402580
vt 0.397678 0.398763
vt 0.471115 0.425761
vt 0.544552 0.425761
vt 0.486801 0.141920
vt 0.397678 0.138104
vt 0.550173 0.199270
vt 0.486801 0.199270
vt 0.490102 0.180270
vt 0.546873 0.180270
vt 0.550173 0.398540
vt 0.486801 0.398540
vt 0.490102 0.379540
vt 0.546873 0.379540
vt 0.397678 0.398763
vt 0.320697 0.398763
vt 0.330802 0.379660
vt 0.387573 0.379660
vt 0.397678 0.199381
vt 0.320697 0.199381
vt 0.330802 0.180278
vt 0.387573 0.180278
vt 0.490102 0.199270
vt 0.546873 0.199270
vt 0.330802 0.199381
vt 0.387573 0.199381
vt 0.330802 0.000000
vt 0.387573 0.000000
vt 0.490102 0.000000
vt 0.546873 0.000000
vt 0.409016 0.565457
vt 0.409016 0.622227
vt 0.397678 0.633565
vt 0.397678 0.554119
vt 0.465787 0.565457
vt 0.477125 0.554119
vt 0.465787 0.622227
vt 0.477125 0.633565
vt 0.566292 0.402126
vt 0.566292 0.322679
vt 0.597201 0.322679
vt 0.597201 0.402126
vt 0.566292 0.089201
vt 0.645739 0.089201
vt 0.645739 0.168648
vt 0.566292 0.168648
vt 0.247259 0.492590
vt 0.247259 0.413143
vt 0.278169 0.413143
vt 0.278169 0.492590
vt 0.247259 0.413143
vt 0.247259 0.333696
vt 0.278169 0.333696
vt 0.278169 0.413143
vt 0.247259 0.572037
vt 0.247259 0.492590
vt 0.278168 0.492590
vt 0.278168 0.572037
vt 0.643273 0.245663
vt 0.629840 0.322679
vt 0.579725 0.322679
vt 0.566292 0.245663
vt 0.643273 0.168648
vt 0.629840 0.245663
vt 0.579725 0.245663
vt 0.566292 0.168648
vt 0.286260 0.487823
vt 0.286260 0.410842
vt 0.294350 0.410842
vt 0.294350 0.487823
vt 0.302441 0.410842
vt 0.302441 0.487823
vt 0.294350 0.487823
vt 0.294350 0.410842
vt 0.319216 0.141790
vt 0.319216 0.191906
vt 0.248740 0.191906
vt 0.248740 0.141790
vt 0.278169 0.410842
vt 0.278169 0.333696
vt 0.286260 0.333696
vt 0.281721 0.410842
vt 0.286260 0.410842
vt 0.286260 0.487988
vt 0.282708 0.487988
vt 0.278169 0.410842
vn 0.0000 -1.0000 0.0000
vn -1.0000 0.0000 0.0000
vn 1.0000 0.0000 0.0000
vn 0.0000 1.0000 0.0000
vn 0.9668 0.0033 -0.2555
vn 0.9668 0.0033 0.2555
vn 1.0000 0.0010 0.0000
vn 0.9978 0.0665 0.0000
vn 0.0000 0.2058 0.9786
vn -0.9569 0.0750 0.2807
vn 0.0000 0.0174 -0.9998
vn -1.0000 0.0010 0.0000
vn -0.9668 0.0033 -0.2555
vn -0.9668 0.0033 0.2555
vn 0.0000 0.0174 0.9998
vn 0.9569 0.0750 0.2807
vn 0.9569 0.0750 -0.2807
vn 0.0000 0.2058 -0.9786
vn -0.9978 0.0665 0.0000
vn -0.9569 0.0750 -0.2807
vn 0.0000 0.1719 -0.9851
vn 0.0000 0.1719 0.9851
vn 0.0000 -0.9377 0.3474
vn -0.9565 0.0000 -0.2917
vn 0.0000 0.0000 1.0000
vn 0.0000 0.0000 -1.0000
vn 0.0000 0.9377 0.3474
vn 0.0000 0.9377 -0.3474
vn 0.9565 0.0000 -0.2917
vn 0.9565 0.0000 0.2917
vn 0.0000 -0.9377 -0.3474
vn -0.9565 0.0000 0.2917
vn 0.0000 -0.4670 -0.8842
vn 0.0000 -0.4670 0.8842
vn -0.9854 -0.1700 0.0000
vn 0.9854 -0.1700 0.0000
vn -0.9983 0.0589 0.0000
vn 0.9983 0.0589 0.0000
usemtl Material
s off
f 2/1/1 6/2/1 10/3/1 9/4/1
f 19/5/2 8/6/2 12/7/2 22/8/2
f 8/9/1 4/10/1 15/11/1 12/12/1
f 4/13/3 18/14/3 21/15/3 15/16/3
f 17/17/3 2/18/3 9/19/3 24/20/3
f 6/21/2 20/22/2 23/23/2 10/24/2
f 1/25/4 3/26/4 18/27/4 17/28/4
f 11/29/4 1/25/4 17/28/4 24/30/4
f 16/31/4 11/29/4 24/30/4 23/32/4
f 5/33/4 16/31/4 23/32/4 20/34/4
f 7/35/4 5/33/4 20/34/4 19/36/4
f 13/37/4 7/35/4 19/36/4 22/38/4
f 14/39/4 13/37/4 22/38/4 21/40/4
f 3/26/4 14/39/4 21/40/4 18/27/4
usemtl Material.001
f 1/41/5 11/42/5 32/43/5 28/44/5
f 14/45/6 3/46/6 25/47/6 29/48/6
f 3/46/7 1/41/7 28/44/7 25/47/7
f 25/47/8 28/44/8 33/49/8
f 30/50/9 29/51/9 33/52/9
f 26/53/10 30/54/10 33/55/10
f 11/56/11 16/57/11 31/58/11 32/59/11
f 5/60/12 7/61/12 26/53/12 27/62/12
f 16/63/13 5/60/13 27/62/13 31/64/13
f 7/61/14 13/65/14 30/54/14 26/53/14
f 13/66/15 14/67/15 29/51/15 30/50/15
f 29/48/16 25/47/16 33/49/16
f 28/44/17 32/43/17 33/49/17
f 32/59/18 31/58/18 33/68/18
f 27/62/19 26/53/19 33/55/19
f 31/64/20 27/62/20 33/55/20
usemtl Material.002
f 2/69/21 17/70/21 60/71/21 61/72/21
f 18/73/22 4/74/22 64/75/22 63/76/22
f 9/4/23 10/3/23 35/77/23 34/78/23
f 22/8/24 12/7/24 37/79/24 38/80/24
f 40/81/25 39/82/25 38/83/25 37/84/25
f 35/85/26 41/86/26 36/87/26 34/88/26
f 23/32/27 24/30/27 36/89/27 41/90/27
f 21/40/28 22/38/28 38/91/28 39/92/28
f 15/16/29 21/15/29 39/93/29 40/94/29
f 24/20/30 9/19/30 34/95/30 36/96/30
f 12/12/31 15/11/31 40/97/31 37/98/31
f 10/24/32 23/23/32 41/99/32 35/100/32
f 6/101/33 2/102/33 42/103/33 44/104/33
f 4/105/34 8/106/34 45/107/34 43/108/34
f 8/109/35 6/110/35 44/111/35 45/112/35
f 2/113/36 4/114/36 43/115/36 42/116/36
f 43/108/25 45/107/25 49/117/25 47/118/25
f 45/112/2 44/111/2 48/119/2 49/120/2
f 42/116/3 43/115/3 47/121/3 46/122/3
f 44/104/26 42/103/26 46/123/26 48/124/26
f 46/125/4 47/126/4 51/127/4 50/128/4
f 48/129/4 46/125/4 50/128/4 52/130/4
f 47/126/4 49/131/4 53/132/4 51/127/4
f 49/131/4 48/129/4 52/130/4 53/132/4
f 51/133/25 53/134/25 55/135/25 57/136/25
f 54/137/1 56/138/1 57/139/1 55/140/1
f 53/141/2 52/142/2 54/143/2 55/144/2
f 50/145/3 51/146/3 57/147/3 56/148/3
f 52/149/26 50/150/26 56/151/26 54/152/26
f 59/153/37 62/154/37 65/155/37 58/156/37
f 61/157/38 60/158/38 63/159/38 64/160/38
f 4/161/1 2/162/1 61/163/1 64/164/1
f 6/165/1 8/166/1 59/167/1 58/168/1
f 19/36/4 20/34/4 65/169/4 62/170/4
f 17/28/4 18/27/4 63/171/4 60/172/4
f 20/173/21 6/174/21 58/175/21 65/176/21
f 8/177/22 19/178/22 62/179/22 59/180/22
