# Blender v2.92.0 OBJ File: 'toprch.blend'
# www.blender.org
mtllib torch.mtl
o Cylinder
v -0.000000 3.484920 0.676195
v 0.000000 -2.562451 0.550781
v -0.478142 3.484920 0.478142
v -0.389461 -2.562451 0.389461
v -0.676195 3.484920 -0.000000
v -0.550781 -2.562451 -0.000000
v -0.478142 3.484920 -0.478142
v -0.389461 -2.562451 -0.389461
v 0.000000 3.484920 -0.676195
v 0.000000 -2.562451 -0.550781
v 0.478142 3.484920 -0.478142
v 0.389461 -2.562451 -0.389461
v 0.676195 3.484920 0.000000
v 0.550781 -2.562451 0.000000
v 0.478142 3.484920 0.478142
v 0.389461 -2.562451 0.389461
v -0.000000 -0.539003 0.606139
v -0.428605 -0.539003 0.428605
v -0.606139 -0.539003 -0.000000
v -0.428605 -0.539003 -0.428605
v 0.000000 -0.539003 -0.606139
v 0.428605 -0.539003 -0.428605
v 0.606139 -0.539003 0.000000
v 0.428605 -0.539003 0.428605
v -0.001013 -0.579726 0.643058
v -0.458603 -0.579726 0.453518
v -0.648143 -0.579726 -0.004072
v -0.458603 -0.579726 -0.461663
v -0.001013 -0.579726 -0.651203
v 0.456578 -0.579726 -0.461662
v 0.646117 -0.579726 -0.004072
v 0.456578 -0.579726 0.453518
v -0.001013 -0.970646 0.598347
v -0.426987 -0.970646 0.421902
v -0.603432 -0.970646 -0.004072
v -0.426987 -0.970646 -0.430047
v -0.001013 -0.970646 -0.606491
v 0.424962 -0.970646 -0.430047
v 0.601406 -0.970646 -0.004072
v 0.424962 -0.970646 0.421902
v -0.000000 3.484920 0.769740
v -0.544289 3.484920 0.544289
v -0.769740 3.484920 -0.000000
v -0.544289 3.484920 -0.544289
v 0.000000 3.484920 -0.769740
v 0.544289 3.484920 -0.544289
v 0.769740 3.484920 0.000000
v 0.544289 3.484920 0.544289
v -0.000000 3.736193 0.566502
v -0.400577 3.736193 0.400577
v -0.566502 3.736193 -0.000000
v -0.400577 3.736193 -0.400577
v 0.000000 3.736193 -0.566502
v 0.400577 3.736193 -0.400577
v 0.566501 3.736193 0.000000
v 0.400577 3.736193 0.400577
v -0.265839 -5.292257 0.265839
v -0.000000 -5.292257 0.375953
v -0.375953 -5.292257 -0.000000
v -0.265839 -5.292257 -0.265839
v -0.000000 -5.292257 -0.375953
v 0.265838 -5.292257 -0.265839
v 0.375952 -5.292257 0.000000
v 0.265838 -5.292257 0.265839
v -0.000000 -2.562451 0.614121
v -0.434249 -2.562451 0.434249
v -0.614121 -2.562451 -0.000000
v -0.434249 -2.562451 -0.434249
v 0.000000 -2.562451 -0.614121
v 0.434249 -2.562451 -0.434249
v 0.614121 -2.562451 0.000000
v 0.434249 -2.562451 0.434249
v -0.000000 -2.880194 0.546424
v -0.386380 -2.880194 0.386380
v -0.546424 -2.880194 -0.000000
v -0.386380 -2.880194 -0.386380
v 0.000000 -2.880194 -0.546424
v 0.386380 -2.880194 -0.386380
v 0.546424 -2.880194 0.000000
v 0.386380 -2.880194 0.386380
v -0.000000 3.736193 0.769740
v -0.544289 3.736193 0.544289
v -0.769740 3.736193 -0.000000
v -0.544289 3.736193 -0.544289
v 0.000000 3.736193 -0.769740
v 0.544289 3.736193 -0.544289
v 0.769740 3.736193 0.000000
v 0.544289 3.736193 0.544289
vt 1.000000 0.779297
vt 0.875000 0.779297
vt 0.875000 1.000000
vt 1.000000 1.000000
vt 0.750000 0.779297
vt 0.750000 1.000000
vt 0.625000 0.779297
vt 0.625000 1.000000
vt 0.500000 0.779297
vt 0.500000 1.000000
vt 0.375000 0.779297
vt 0.375000 1.000000
vt 0.250000 0.779297
vt 0.250000 1.000000
vt 0.625000 1.000000
vt 0.750000 1.000000
vt 0.125000 0.779297
vt 0.125000 1.000000
vt 0.000000 0.779297
vt 0.000000 1.000000
vt 0.625000 0.500000
vt 0.625000 0.500000
vt 0.500000 0.500000
vt 0.500000 0.500000
vt 0.125000 0.500000
vt 0.000000 0.500000
vt 0.250000 0.500000
vt 0.375000 0.500000
vt 0.750000 0.500000
vt 0.875000 0.500000
vt 1.000000 0.500000
vt 0.250000 0.500000
vt 0.125000 0.500000
vt 0.875000 0.500000
vt 0.750000 0.500000
vt 0.375000 0.500000
vt 0.000000 0.500000
vt 1.000000 0.500000
vt 0.419706 0.419706
vt 0.490000 0.250000
vt 0.419706 0.080294
vt 0.250000 0.010000
vt 0.080294 0.080294
vt 0.010000 0.250000
vt 0.080294 0.419706
vt 0.250000 0.490000
vt 0.250000 1.000000
vt 0.375000 1.000000
vt 0.500000 1.000000
vt 0.125000 1.000000
vt 0.875000 1.000000
vt 0.000000 1.000000
vt 1.000000 1.000000
vt 0.000000 0.779297
vt 0.125000 0.779297
vt 0.875000 0.779297
vt 1.000000 0.779297
vt 0.625000 0.779297
vt 0.750000 0.779297
vt 0.375000 0.779297
vt 0.500000 0.779297
vt 0.250000 0.779297
vt 0.375000 0.779297
vt 0.500000 0.779297
vt 0.125000 0.779297
vt 0.250000 0.779297
vt 0.750000 0.779297
vt 0.875000 0.779297
vt 0.625000 0.779297
vt 0.000000 0.779297
vt 1.000000 0.779297
vt 0.625000 1.000000
vt 0.750000 1.000000
vt 0.250000 1.000000
vt 0.375000 1.000000
vt 0.500000 1.000000
vt 0.125000 1.000000
vt 0.875000 1.000000
vt 0.000000 1.000000
vt 1.000000 1.000000
vt 0.875000 1.000000
vt 1.000000 1.000000
vt 0.000000 1.000000
vt 0.125000 1.000000
vt 0.250000 1.000000
vt 0.375000 1.000000
vt 0.500000 1.000000
vt 0.625000 1.000000
vt 0.750000 1.000000
vt 0.500000 0.500000
vt 0.375000 0.500000
vt 0.750000 0.500000
vt 0.625000 0.500000
vt 1.000000 0.500000
vt 0.875000 0.500000
vt 0.125000 0.500000
vt 0.000000 0.500000
vt 0.250000 0.500000
vt 0.874897 0.374897
vt 0.919706 0.419706
vt 0.750000 0.490000
vt 0.750000 0.426631
vt 0.926631 0.250000
vt 0.990000 0.250000
vt 0.874897 0.125103
vt 0.919706 0.080294
vt 0.750000 0.073369
vt 0.750000 0.010000
vt 0.625103 0.125103
vt 0.580294 0.080294
vt 0.573369 0.250000
vt 0.510000 0.250000
vt 0.625103 0.374897
vt 0.580294 0.419706
vn -0.3826 -0.0253 0.9236
vn -0.9236 -0.0253 0.3826
vn -0.9236 -0.0253 -0.3826
vn -0.3826 -0.0253 -0.9236
vn 0.3826 -0.0253 -0.9236
vn 0.9236 -0.0253 -0.3826
vn -0.9223 -0.0591 -0.3820
vn 0.9236 -0.0253 0.3826
vn 0.3826 -0.0253 0.9236
vn 0.0000 -1.0000 0.0000
vn 0.3826 -0.0161 0.9238
vn 0.9238 -0.0161 0.3826
vn 0.9238 -0.0161 -0.3826
vn 0.3826 -0.0161 -0.9238
vn -0.3826 -0.0161 -0.9238
vn -0.9238 -0.0161 -0.3826
vn -0.9238 -0.0161 0.3826
vn -0.3826 -0.0161 0.9238
vn 0.9223 -0.0591 -0.3820
vn -0.3820 -0.0591 -0.9223
vn 0.9223 -0.0591 0.3820
vn -0.9223 -0.0591 0.3820
vn 0.3820 -0.0591 -0.9223
vn 0.3820 -0.0591 0.9223
vn -0.3820 -0.0591 0.9223
vn 0.2948 0.6378 0.7116
vn -0.2920 0.6464 0.7050
vn -0.6562 0.7040 -0.2718
vn 0.2689 0.7116 -0.6491
vn 0.6975 0.6558 0.2889
vn -0.6817 0.6749 0.2824
vn -0.2663 0.7181 -0.6430
vn 0.6714 0.6869 -0.2781
vn 0.3806 -0.1051 -0.9188
vn 0.9188 -0.1051 0.3806
vn -0.9188 -0.1051 0.3806
vn -0.3806 -0.1051 -0.9188
vn 0.9188 -0.1051 -0.3806
vn 0.3806 -0.1051 0.9188
vn -0.3806 -0.1051 0.9188
vn -0.9188 -0.1051 -0.3806
vn 0.0000 1.0000 -0.0000
vn -0.3755 -0.1931 0.9065
vn 0.3755 -0.1931 0.9065
vn 0.9065 -0.1931 -0.3755
vn -0.3755 -0.1931 -0.9065
vn -0.9065 -0.1931 0.3755
vn 0.9065 -0.1931 0.3755
vn 0.3755 -0.1931 -0.9065
vn -0.9065 -0.1931 -0.3755
vn 0.3827 0.0000 -0.9239
vn -0.9239 0.0000 -0.3827
vn -0.3827 -0.0000 0.9239
vn 0.3827 0.0000 0.9239
vn 0.9239 0.0000 -0.3827
vn -0.3827 0.0000 -0.9239
vn -0.9239 0.0000 0.3827
vn 0.9239 0.0000 0.3827
usemtl Material.001
s off
f 17/1/1 18/2/1 4/3/1 2/4/1
f 18/2/2 19/5/2 6/6/2 4/3/2
f 19/5/3 20/7/3 8/8/3 6/6/3
f 20/7/4 21/9/4 10/10/4 8/8/4
f 21/9/5 22/11/5 12/12/5 10/10/5
f 22/11/6 23/13/6 14/14/6 12/12/6
f 8/8/7 60/15/7 59/16/7 6/6/7
f 23/13/8 24/17/8 16/18/8 14/14/8
f 24/17/9 17/19/9 2/20/9 16/18/9
f 7/21/10 44/22/10 45/23/10 9/24/10
f 15/25/11 1/26/11 17/19/11 24/17/11
f 13/27/12 15/25/12 24/17/12 23/13/12
f 11/28/13 13/27/13 23/13/13 22/11/13
f 9/24/14 11/28/14 22/11/14 21/9/14
f 7/21/15 9/24/15 21/9/15 20/7/15
f 5/29/16 7/21/16 20/7/16 19/5/16
f 3/30/17 5/29/17 19/5/17 18/2/17
f 1/31/18 3/30/18 18/2/18 17/1/18
f 13/27/10 47/32/10 48/33/10 15/25/10
f 3/30/10 42/34/10 43/35/10 5/29/10
f 9/24/10 45/23/10 46/36/10 11/28/10
f 15/25/10 48/33/10 41/37/10 1/26/10
f 1/31/10 41/38/10 42/34/10 3/30/10
f 5/29/10 43/35/10 44/22/10 7/21/10
f 11/28/10 46/36/10 47/32/10 13/27/10
f 57/39/10 59/40/10 60/41/10 61/42/10 62/43/10 63/44/10 64/45/10 58/46/10
f 14/14/19 63/47/19 62/48/19 12/12/19
f 10/10/20 61/49/20 60/15/20 8/8/20
f 16/18/21 64/50/21 63/47/21 14/14/21
f 6/6/22 59/16/22 57/51/22 4/3/22
f 12/12/23 62/48/23 61/49/23 10/10/23
f 2/20/24 58/52/24 64/50/24 16/18/24
f 4/3/25 57/51/25 58/53/25 2/4/25
usemtl Material.003
f 17/19/26 25/54/26 32/55/26 24/17/26
f 18/2/27 26/56/27 25/57/27 17/1/27
f 20/7/28 28/58/28 27/59/28 19/5/28
f 22/11/29 30/60/29 29/61/29 21/9/29
f 24/17/30 32/55/30 31/62/30 23/13/30
f 19/5/31 27/59/31 26/56/31 18/2/31
f 21/9/32 29/61/32 28/58/32 20/7/32
f 23/13/33 31/62/33 30/60/33 22/11/33
f 30/60/34 38/63/34 37/64/34 29/61/34
f 32/55/35 40/65/35 39/66/35 31/62/35
f 27/59/36 35/67/36 34/68/36 26/56/36
f 29/61/37 37/64/37 36/69/37 28/58/37
f 31/62/38 39/66/38 38/63/38 30/60/38
f 25/54/39 33/70/39 40/65/39 32/55/39
f 26/56/40 34/68/40 33/71/40 25/57/40
f 28/58/41 36/69/41 35/67/41 27/59/41
f 6/6/42 8/8/42 68/72/42 67/73/42
f 12/12/42 14/14/42 71/74/42 70/75/42
f 8/8/42 10/10/42 69/76/42 68/72/42
f 14/14/42 16/18/42 72/77/42 71/74/42
f 4/3/42 6/6/42 67/73/42 66/78/42
f 10/10/42 12/12/42 70/75/42 69/76/42
f 16/18/42 2/20/42 65/79/42 72/77/42
f 2/4/42 4/3/42 66/78/42 65/80/42
f 65/80/43 66/78/43 74/81/43 73/82/43
f 72/77/44 65/79/44 73/83/44 80/84/44
f 70/75/45 71/74/45 79/85/45 78/86/45
f 68/72/46 69/76/46 77/87/46 76/88/46
f 66/78/47 67/73/47 75/89/47 74/81/47
f 71/74/48 72/77/48 80/84/48 79/85/48
f 69/76/49 70/75/49 78/86/49 77/87/49
f 67/73/50 68/72/50 76/88/50 75/89/50
usemtl Material.004
f 45/23/51 85/90/51 86/91/51 46/36/51
f 43/35/52 83/92/52 84/93/52 44/22/52
f 41/38/53 81/94/53 82/95/53 42/34/53
f 48/33/54 88/96/54 81/97/54 41/37/54
f 46/36/55 86/91/55 87/98/55 47/32/55
f 44/22/56 84/93/56 85/90/56 45/23/56
f 42/34/57 82/95/57 83/92/57 43/35/57
f 47/32/58 87/98/58 88/96/58 48/33/58
f 50/99/42 82/100/42 81/101/42 49/102/42
f 51/103/42 83/104/42 82/100/42 50/99/42
f 52/105/42 84/106/42 83/104/42 51/103/42
f 53/107/42 85/108/42 84/106/42 52/105/42
f 54/109/42 86/110/42 85/108/42 53/107/42
f 55/111/42 87/112/42 86/110/42 54/109/42
f 56/113/42 88/114/42 87/112/42 55/111/42
f 49/102/42 81/101/42 88/114/42 56/113/42
o Cylinder.001
v -0.000000 3.736193 0.566502
v -0.400577 3.736193 0.400577
v -0.566502 3.736193 -0.000000
v -0.400577 3.736193 -0.400577
v 0.000000 3.736193 -0.566502
v 0.400577 3.736193 -0.400577
v 0.566501 3.736193 0.000000
v 0.400577 3.736193 0.400577
v -0.000000 4.030303 0.566502
v -0.400577 4.030303 0.400577
v -0.566502 4.030303 -0.000000
v -0.400577 4.030303 -0.400577
v -0.000000 4.030303 -0.566502
v 0.400577 4.030303 -0.400577
v 0.566501 4.030303 0.000000
v 0.400577 4.030303 0.400577
v -0.000000 6.759262 0.000000
vt 0.874897 0.374897
vt 0.874897 0.374897
vt 0.926631 0.250000
vt 0.926631 0.250000
vt 0.573369 0.250000
vt 0.573369 0.250000
vt 0.625103 0.374897
vt 0.625103 0.374897
vt 0.750000 0.073369
vt 0.750000 0.073369
vt 0.625103 0.125103
vt 0.625103 0.125103
vt 0.874897 0.125103
vt 0.874897 0.125103
vt 0.750000 0.426631
vt 0.750000 0.426631
vt 0.750000 0.250000
vn -0.9239 -0.0000 0.3827
vn 0.9239 0.0000 0.3827
vn 0.3827 0.0000 -0.9239
vn -0.9239 -0.0000 -0.3827
vn -0.3827 -0.0000 0.9239
vn 0.3827 0.0000 0.9239
vn 0.9239 0.0000 -0.3827
vn -0.3827 -0.0000 -0.9239
vn -0.3758 0.1884 0.9073
vn -0.9073 0.1884 0.3758
vn -0.9073 0.1884 -0.3758
vn -0.3758 0.1884 -0.9073
vn 0.3758 0.1884 -0.9073
vn 0.9073 0.1884 -0.3758
vn 0.9073 0.1884 0.3758
vn 0.3758 0.1884 0.9073
usemtl Material.002
s off
f 90/115/59 98/116/59 99/117/59 91/118/59
f 95/119/60 103/120/60 104/121/60 96/122/60
f 93/123/61 101/124/61 102/125/61 94/126/61
f 91/118/62 99/117/62 100/127/62 92/128/62
f 89/129/63 97/130/63 98/116/63 90/115/63
f 96/122/64 104/121/64 97/130/64 89/129/64
f 94/126/65 102/125/65 103/120/65 95/119/65
f 92/128/66 100/127/66 101/124/66 93/123/66
f 97/130/67 105/131/67 98/116/67
f 98/116/68 105/131/68 99/117/68
f 99/117/69 105/131/69 100/127/69
f 100/127/70 105/131/70 101/124/70
f 101/124/71 105/131/71 102/125/71
f 102/125/72 105/131/72 103/120/72
f 103/120/73 105/131/73 104/121/73
f 104/121/74 105/131/74 97/130/74
o Cylinder.002
v 0.045547 0.531661 -1.000000
v 0.014783 2.529271 -1.000000
v 0.427773 0.512959 -0.923880
v 0.525511 2.510570 -0.923880
v 0.751809 0.497105 -0.707107
v 0.849547 2.494716 -0.707107
v 0.968322 0.486512 -0.382683
v 1.066060 2.484122 -0.382683
v 1.044352 0.482792 0.000000
v 1.142090 2.480402 0.000000
v 0.968322 0.486512 0.382684
v 1.066060 2.484122 0.382684
v 0.751809 0.497105 0.707107
v 0.849547 2.494716 0.707107
v 0.427773 0.512959 0.923880
v 0.525511 2.510570 0.923880
v 0.045547 0.531661 1.000000
v 0.014784 2.529271 1.000000
v -0.777830 0.531661 -1.000000
v -0.808593 2.529271 -1.000000
v -0.777830 0.531661 1.000000
v -0.808593 2.529271 1.000000
v -0.031269 2.531918 -1.118522
v 0.539991 2.511001 -1.033379
v 0.902432 2.493267 -0.790914
v 1.144607 2.481418 -0.428040
v 1.229648 2.477257 0.000000
v 1.144607 2.481418 0.428040
v 0.902432 2.493267 0.790914
v 0.539991 2.511001 1.033379
v -0.031268 2.531918 1.118522
v -0.952233 2.531919 -1.118522
v -0.952233 2.531919 1.118522
v 0.017816 2.628867 -1.000000
v 0.528543 2.610166 -0.923880
v 0.852579 2.594312 -0.707107
v 1.069093 2.583718 -0.382683
v 1.145122 2.579998 0.000000
v 1.069093 2.583718 0.382684
v 0.852579 2.594312 0.707107
v 0.528543 2.610166 0.923880
v 0.017816 2.628867 1.000000
v -0.805561 2.628867 1.000000
v -0.805561 2.628867 -1.000000
v -0.028236 2.631514 -1.118522
v 0.543023 2.610597 -1.033379
v 0.905464 2.592863 -0.790914
v 1.147640 2.581014 -0.428040
v 1.232680 2.576854 0.000000
v 1.147640 2.581014 0.428040
v 0.905464 2.592863 0.790914
v 0.543023 2.610597 1.033379
v -0.028236 2.631514 1.118522
v -0.949201 2.631515 1.118522
v -0.949201 2.631515 -1.118522
v 0.037104 1.079869 -1.000000
v 0.038677 0.977765 -1.000000
v 0.029414 1.579264 -1.000000
v 0.030986 1.477175 -1.000000
v 0.021723 2.078661 -1.000000
v 0.023295 1.976584 -1.000000
v 0.498475 1.958005 -0.923880
v 0.503458 2.059836 -0.923880
v 0.474041 1.458605 -0.923880
v 0.479023 1.560432 -0.923880
v 0.449607 0.959204 -0.923880
v 0.454589 1.061027 -0.923880
v 0.822511 1.942149 -0.707107
v 0.827493 2.043984 -0.707107
v 0.798077 1.442748 -0.707107
v 0.803059 1.544580 -0.707107
v 0.773642 0.943348 -0.707107
v 0.778624 1.045175 -0.707107
v 1.039025 1.931554 -0.382683
v 1.044007 2.033392 -0.382683
v 1.014590 1.432154 -0.382683
v 1.019573 1.533988 -0.382683
v 0.990156 0.932753 -0.382683
v 0.995138 1.034583 -0.382683
v 1.115054 1.927834 0.000000
v 1.120037 2.029672 0.000000
v 1.090620 1.428433 0.000000
v 1.095602 1.530268 0.000000
v 1.066185 0.929032 0.000000
v 1.071168 1.030864 0.000000
v 1.039025 1.931554 0.382684
v 1.044007 2.033392 0.382684
v 1.014590 1.432154 0.382684
v 1.019573 1.533988 0.382684
v 0.990156 0.932753 0.382684
v 0.995138 1.034583 0.382684
v 0.822511 1.942149 0.707107
v 0.827493 2.043984 0.707107
v 0.798077 1.442748 0.707107
v 0.803059 1.544580 0.707107
v 0.773642 0.943348 0.707107
v 0.778624 1.045175 0.707107
v 0.498475 1.958005 0.923880
v 0.503458 2.059836 0.923880
v 0.474041 1.458605 0.923880
v 0.479023 1.560432 0.923880
v 0.449607 0.959204 0.923880
v 0.454589 1.061027 0.923880
v 0.023295 1.976584 1.000000
v 0.021723 2.078661 1.000000
v 0.030986 1.477175 1.000000
v 0.029414 1.579264 1.000000
v 0.038677 0.977765 1.000000
v 0.037104 1.079869 1.000000
v -0.786272 1.079867 -1.000000
v -0.784700 0.977767 -1.000000
v -0.793963 1.579262 -1.000000
v -0.792391 1.477177 -1.000000
v -0.801654 2.078659 -1.000000
v -0.800082 1.976586 -1.000000
v -0.800082 1.976586 1.000000
v -0.801654 2.078659 1.000000
v -0.792391 1.477177 1.000000
v -0.793963 1.579262 1.000000
v -0.784700 0.977767 1.000000
v -0.786272 1.079867 1.000000
vt 0.937500 0.774364
vt 0.937500 1.000000
vt 0.875000 1.000000
vt 0.875000 0.774365
vt 0.937500 0.524363
vt 0.937500 0.723387
vt 0.875000 0.723386
vt 0.875000 0.524364
vt 0.812500 0.723386
vt 0.812500 0.524364
vt 0.750000 0.723385
vt 0.750000 0.524365
vt 0.687500 0.723386
vt 0.687500 0.524364
vt 0.625000 0.723386
vt 0.625000 0.524364
vt 0.562500 0.723387
vt 0.562500 0.524363
vt 0.500000 0.723326
vt 0.500000 0.524428
vt 0.500000 0.723326
vt 0.500000 0.524427
vt 1.000000 0.274432
vt 1.000000 0.473322
vt 0.937500 0.473388
vt 0.937500 0.274361
vt 0.000000 0.000000
vt 0.000000 0.000000
vt 0.000000 0.000000
vt 0.000000 0.000000
vt 0.500000 1.000000
vt 0.500000 1.000000
vt 0.500000 1.000000
vt 0.500000 1.000000
vt 0.000000 0.000000
vt 0.000000 0.000000
vt 0.000000 0.000000
vt 0.000000 0.000000
vt 0.562500 1.000000
vt 0.625000 1.000000
vt 0.625000 1.000000
vt 0.562500 1.000000
vt 0.937500 1.000000
vt 0.875000 1.000000
vt 0.000000 0.000000
vt 0.000000 0.000000
vt 0.000000 0.000000
vt 0.000000 0.000000
vt 0.000000 0.000000
vt 0.000000 0.000000
vt 0.750000 1.000000
vt 0.812500 1.000000
vt 0.812500 1.000000
vt 0.750000 1.000000
vt 0.000000 0.000000
vt 0.000000 0.000000
vt 0.000000 0.000000
vt 0.000000 0.000000
vt 0.687500 1.000000
vt 0.687500 1.000000
vt 0.750000 1.000000
vt 0.500000 1.000000
vt 0.500000 1.000000
vt 0.812500 1.000000
vt 0.875000 1.000000
vt 0.937500 1.000000
vt 1.000000 1.000000
vt 1.000000 1.000000
vt 1.000000 1.000000
vt 1.000000 1.000000
vt 0.562500 1.000000
vt 0.625000 1.000000
vt 0.000000 0.000000
vt 0.000000 0.000000
vt 0.687500 1.000000
vt 1.000000 1.000000
vt 1.000000 1.000000
vt 0.000000 0.000000
vt 0.000000 0.000000
vt 0.000000 0.000000
vt 0.000000 0.000000
vt 0.000000 0.000000
vt 0.000000 0.000000
vt 1.000000 0.774425
vt 1.000000 0.774424
vt 1.000000 0.524428
vt 1.000000 0.723326
vt 0.500000 0.000000
vt 0.500000 0.223319
vt 0.500000 0.223320
vt 0.500000 0.000000
vt 0.500000 0.274432
vt 0.500000 0.473323
vt 0.500000 0.473324
vt 0.500000 0.274431
vt 0.500000 0.774425
vt 0.500000 0.774424
vt 0.562500 0.000000
vt 0.562500 0.223389
vt 0.562500 0.274362
vt 0.562500 0.473388
vt 0.562500 0.774364
vt 0.625000 0.000000
vt 0.625000 0.223388
vt 0.625000 0.274363
vt 0.625000 0.473387
vt 0.625000 0.774365
vt 0.687500 0.000000
vt 0.687500 0.223387
vt 0.687500 0.274364
vt 0.687500 0.473386
vt 0.687500 0.774365
vt 0.750000 0.000000
vt 0.750000 0.223387
vt 0.750000 0.274364
vt 0.750000 0.473386
vt 0.750000 0.774365
vt 0.812500 0.000000
vt 0.812500 0.223387
vt 0.812500 0.274364
vt 0.812500 0.473386
vt 0.812500 0.774365
vt 0.875000 0.000000
vt 0.875000 0.223388
vt 0.875000 0.274363
vt 0.875000 0.473387
vt 0.937500 0.000000
vt 0.937500 0.223389
vt 1.000000 0.223319
vt 1.000000 0.000000
vt 1.000000 0.000000
vt 1.000000 0.223320
vt 1.000000 0.274431
vt 1.000000 0.473324
vt 1.000000 0.524427
vt 1.000000 0.723327
vn 0.3631 -0.0152 -0.9316
vn 0.3620 -0.0131 -0.9321
vn 0.7071 -0.0280 -0.7065
vn 0.6580 -0.0322 -0.7523
vn 0.3682 -0.0153 -0.9296
vn 0.3656 -0.0153 -0.9306
vn 0.9460 -0.0463 -0.3207
vn 0.9988 -0.0489 0.0000
vn 0.9460 -0.0463 0.3207
vn 0.6580 -0.0322 0.7523
vn 0.3656 -0.0153 0.9306
vn 0.3682 -0.0153 0.9296
vn 0.1063 -0.0018 0.9943
vn 0.1107 -0.0018 0.9938
vn 0.0000 0.0000 1.0000
vn 0.1189 -0.0020 -0.9929
vn 0.1140 -0.0019 -0.9935
vn 0.3710 -0.0153 -0.9285
vn 0.3740 -0.0154 -0.9273
vn 0.3403 -0.0103 0.9402
vn 0.2269 -0.0069 0.9739
vn 0.2616 0.6376 0.7246
vn 0.3294 0.2160 0.9191
vn 0.0738 -0.0017 0.9973
vn 0.0678 0.7315 0.6784
vn 0.9995 -0.0304 0.0000
vn 0.7684 0.6400 0.0000
vn 0.7127 0.6420 0.2824
vn 0.9238 -0.0281 0.3818
vn 0.3620 -0.0131 0.9321
vn 0.7071 -0.0280 0.7065
vn 0.4942 0.7380 0.4594
vn 0.2634 0.7551 0.6004
vn 0.2634 0.7551 -0.6004
vn 0.4942 0.7380 -0.4594
vn 0.2268 -0.0069 -0.9739
vn 0.3403 -0.0103 -0.9402
vn 0.3294 0.2160 -0.9191
vn 0.2616 0.6376 -0.7246
vn 0.9238 -0.0281 -0.3818
vn 0.7127 0.6420 -0.2824
vn 0.9992 -0.0396 0.0000
vn 0.9233 -0.0366 -0.3822
vn 0.6339 0.7324 -0.2482
vn 0.6829 0.7305 0.0000
vn 0.7080 -0.0215 -0.7059
vn 0.5537 0.6481 -0.5228
vn 0.0627 0.6998 -0.7116
vn 0.0732 -0.0022 -0.9973
vn 0.6339 0.7324 0.2482
vn 0.0627 0.6998 0.7116
vn 0.2949 0.6552 -0.6955
vn 0.0678 0.7315 -0.6784
vn 0.2949 0.6552 0.6955
vn 0.5537 0.6481 0.5228
vn 0.7080 -0.0215 0.7059
vn 0.9233 -0.0366 0.3822
vn 0.0738 -0.0017 -0.9973
vn 0.3615 -0.0110 0.9323
vn 0.0732 -0.0022 0.9973
vn 0.3615 -0.0110 -0.9323
vn 0.1034 -0.0017 -0.9946
vn 0.0000 0.0000 -1.0000
vn 0.1107 -0.0018 -0.9938
vn 0.1063 -0.0018 -0.9943
vn 0.0969 -0.0016 0.9953
vn 0.1230 -0.0020 0.9924
vn 0.1189 -0.0020 0.9929
vn 0.1140 -0.0019 0.9935
vn 0.1034 -0.0017 0.9946
vn 0.3792 -0.0154 0.9252
vn 0.3773 -0.0154 0.9259
vn 0.3740 -0.0154 0.9273
vn 0.3710 -0.0153 0.9285
vn 0.3631 -0.0152 0.9316
vn 0.7063 -0.0345 0.7071
vn 0.9228 -0.0451 0.3827
vn 0.9228 -0.0451 -0.3827
vn 0.7063 -0.0345 -0.7071
vn 0.3792 -0.0154 -0.9252
vn 0.3773 -0.0154 -0.9259
vn 0.1230 -0.0020 -0.9924
vn 0.0969 -0.0016 -0.9953
usemtl Material.004
s 1
f 168/132/75 109/133/76 111/134/77 174/135/78
f 170/136/79 167/137/80 173/138/78 176/139/78
f 176/139/78 173/138/78 179/140/81 182/141/81
f 182/141/81 179/140/81 185/142/82 188/143/82
f 188/143/82 185/142/82 191/144/83 194/145/83
f 194/145/83 191/144/83 197/146/84 200/147/84
f 200/147/84 197/146/84 203/148/85 206/149/86
f 206/149/86 203/148/85 209/150/87 212/151/88
f 212/151/88 209/150/87 221/152/89 224/153/89
f 161/154/90 164/155/91 169/156/92 172/157/93
f 138/158/94 127/159/95 148/160/96 159/161/97
f 127/162/95 123/163/98 147/164/99 148/165/96
f 132/166/100 154/167/101 155/168/102 133/169/103
f 121/170/104 119/171/105 145/172/106 146/173/107
f 111/134/77 109/133/76 140/174/108 141/175/109
f 125/176/110 137/177/111 160/178/112 149/179/113
f 131/180/114 153/181/115 154/167/101 132/166/100
f 115/182/116 113/183/117 142/184/118 143/185/119
f 130/186/120 152/187/121 153/181/115 131/180/114
f 137/177/111 160/178/112 150/188/122 128/189/123
f 144/190/124 155/191/102 154/192/101 143/185/119
f 148/165/96 159/193/97 158/194/125 147/164/99
f 143/185/119 154/192/101 153/195/115 142/184/118
f 142/184/118 153/195/115 152/196/121 141/175/109
f 141/175/109 152/196/121 151/197/126 140/174/108
f 139/198/127 150/199/122 160/200/112 149/201/113
f 140/174/108 151/197/126 150/199/122 139/198/127
f 147/164/99 158/194/125 157/202/128 146/173/107
f 146/173/107 157/202/128 156/203/129 145/172/106
f 145/172/106 156/203/129 155/191/102 144/190/124
f 133/169/103 155/168/102 156/204/129 134/205/130
f 117/206/131 115/182/116 143/185/119 144/190/124
f 107/207/132 125/208/110 149/201/113 139/198/127
f 134/205/130 156/204/129 157/209/128 135/210/133
f 113/183/117 111/134/77 141/175/109 142/184/118
f 123/163/98 121/170/104 146/173/107 147/164/99
f 135/210/133 157/209/128 158/211/125 136/212/134
f 128/189/123 150/188/122 151/213/126 129/214/135
f 136/212/134 158/211/125 159/161/97 138/158/94
f 109/133/76 107/207/132 139/198/127 140/174/108
f 119/171/105 117/206/131 144/190/124 145/172/106
f 129/214/135 151/213/126 152/187/121 130/186/120
f 165/215/136 107/207/132 109/133/76 168/132/75
f 107/207/132 165/215/136 219/216/137 125/208/110
f 163/217/138 166/218/139 167/137/80 170/136/79
f 122/219/140 213/220/141 225/221/89 126/222/89
f 214/223/142 211/224/143 223/225/89 226/226/89
f 210/227/144 123/163/98 127/162/95 222/228/89
f 120/229/145 207/230/146 213/220/141 122/219/140
f 208/231/147 205/232/148 211/224/143 214/223/142
f 204/233/149 121/170/104 123/163/98 210/227/144
f 118/234/150 201/235/84 207/230/146 120/229/145
f 202/236/84 199/237/84 205/232/148 208/231/147
f 198/238/84 119/171/105 121/170/104 204/233/149
f 116/239/151 195/240/83 201/235/84 118/234/150
f 196/241/83 193/242/83 199/237/84 202/236/84
f 192/243/83 117/206/131 119/171/105 198/238/84
f 114/244/82 189/245/82 195/240/83 116/239/151
f 190/246/82 187/247/82 193/242/83 196/241/83
f 186/248/82 115/182/116 117/206/131 192/243/83
f 112/249/152 183/250/81 189/245/82 114/244/82
f 184/251/81 181/252/81 187/247/82 190/246/82
f 180/253/81 113/183/117 115/182/116 186/248/82
f 110/254/153 177/255/78 183/250/81 112/249/152
f 178/256/78 175/257/78 181/252/81 184/251/81
f 174/135/78 111/134/77 113/183/117 180/253/81
f 108/258/154 171/259/155 177/255/78 110/254/153
f 172/157/93 169/156/92 175/257/78 178/256/78
f 162/260/156 106/261/157 124/262/137 216/263/137
f 164/155/91 161/154/90 215/264/137 218/265/137
f 166/218/139 163/217/138 217/266/137 220/267/137
f 208/231/147 214/223/142 213/220/141 207/230/146
f 206/149/86 212/151/88 211/224/143 205/232/148
f 204/233/149 210/227/144 209/150/87 203/148/85
f 202/236/84 208/231/147 207/230/146 201/235/84
f 200/147/84 206/149/86 205/232/148 199/237/84
f 198/238/84 204/233/149 203/148/85 197/146/84
f 190/246/82 196/241/83 195/240/83 189/245/82
f 188/143/82 194/145/83 193/242/83 187/247/82
f 186/248/82 192/243/83 191/144/83 185/142/82
f 184/251/81 190/246/82 189/245/82 183/250/81
f 182/141/81 188/143/82 187/247/82 181/252/81
f 180/253/81 186/248/82 185/142/82 179/140/81
f 172/157/93 178/256/78 177/255/78 171/259/155
f 170/136/79 176/139/78 175/257/78 169/156/92
f 168/132/75 174/135/78 173/138/78 167/137/80
f 161/154/90 172/157/93 171/259/155 162/260/156
f 163/217/138 170/136/79 169/156/92 164/155/91
f 165/215/136 168/132/75 167/137/80 166/218/139
f 106/261/157 162/260/156 171/259/155 108/258/154
